<?xml version="1.0" encoding="UTF-8"?>
<svg width="59.491" height="59.44" version="1.1" viewBox="0 0 58.205 58.155" xmlns="http://www.w3.org/2000/svg">
 <path d="m31.235 0q-2.1534 0-3.7011 1.4804-1.5477 1.4804-1.6823 3.7011-0.13459 2.2207 1.3795 3.903 1.5141 1.6823 3.7684 1.8169 2.2543 0.13459 3.9366-1.3795 1.6823-1.5141 1.8169-3.7684 0.13459-2.2543-1.3795-3.9703t-3.802-1.7833zm-5.8545 6.3928-15.612 7.9406q1.3459 1.3459 1.6823 3.2301l15.545-7.9406q-1.2786-1.3459-1.615-3.2301zm11.238 1.8169q-0.87481 1.6823-2.5571 2.5571l12.315 12.382q0.87481-1.6823 2.6244-2.5571zm-9.5556 1.4804-9.0845 17.833 2.6917 2.6917 9.6229-18.842q-1.8842-0.33646-3.2301-1.6823zm6.9985 1.0767q-1.4804 0.74022-3.0955 0.67293l-0.53834-0.06729 1.4132 8.8827 3.7684 0.60564zm-28.667 2.288q-2.1534 0-3.7011 1.5141-1.5477 1.5141-1.6823 3.7011-0.13459 2.187 1.3795 3.903 1.5141 1.716 3.802 1.8169 2.288 0.10094 3.9703-1.4132 1.6823-1.5141 1.7833-3.7684 0.10094-2.2543-1.4132-3.9366-1.5141-1.6823-3.7348-1.8169zm6.0564 4.5759q0.06729 0.60564 0.06729 1.2113-0.06729 1.2786-0.67293 2.3553l8.8827 1.4132 1.7496-3.3646zm15.141 2.4225-1.7496 3.4319 20.928 3.2974q-0.06729-0.53834-0.06729-1.144 0.06729-1.2786 0.67293-2.4225zm25.033 0.40376q-2.1534 0.06729-3.7011 1.5477-1.5477 1.4804-1.6487 3.7011-0.10094 2.2207 1.4132 3.903 1.5141 1.6823 3.7684 1.8169 2.2543 0.13459 3.9366-1.3795 1.6823-1.5141 1.8169-3.802 0.13458-2.288-1.3795-3.9703-1.5141-1.6823-3.802-1.8169zm-40.779 0.87481q-0.87481 1.6823-2.6244 2.5571l14.132 14.132 3.4319-1.6823zm-2.6917 2.5571q-1.4131 0.74022-2.9609 0.67293l-0.60564-0.06729 2.6917 17.227q1.4131-0.67293 3.0282-0.60564l0.53834 0.06729zm24.495 1.4804 3.2301 20.928q1.4132-0.67293 2.9609-0.60564l0.67293 0.06729-3.0955-19.784zm13.122 1.5477-7.9406 4.0376 0.53834 3.7684 9.0845-4.5759q-1.3459-1.3459-1.6823-3.2301zm1.7496 3.2974-8.0079 15.545q1.8842 0.33646 3.2301 1.6823l8.0079-15.545q-1.8842-0.33646-3.2301-1.6823zm-31.964 1.9515-4.5759 9.0172q1.8842 0.33646 3.2301 1.6823l4.0376-8.0079zm17.631 1.144-18.909 9.6229q1.2786 1.3459 1.615 3.2301l17.833-9.0845zm-3.7011 6.7293-3.4319 1.6823 7.133 7.2003q0.87481-1.6823 2.6244-2.5571zm-19.582 1.615q-2.1534 0-3.7348 1.5141-1.5814 1.5141-1.6823 3.7011-0.10094 2.187 1.4132 3.8693 1.5141 1.6823 3.7684 1.8169 2.2543 0.13459 3.9366-1.3795 1.6823-1.5141 1.8169-3.7684 0.13458-2.2543-1.3795-3.9366-1.5141-1.6823-3.802-1.8169zm5.9891 4.5759q0.13459 0.60564 0.06729 1.2113-0.06729 1.2786-0.60564 2.3553l17.227 2.759q-0.06729-0.60564-0.06729-1.2113 0.06729-1.2113 0.67293-2.3553zm22.543 0q-2.1534 0-3.7011 1.5141t-1.6487 3.7011q-0.10094 2.187 1.3795 3.903 1.4804 1.716 3.7684 1.8169 2.288 0.10094 3.9703-1.4132 1.6823-1.5141 1.8169-3.7684t-1.3795-3.9366q-1.5141-1.6823-3.802-1.8169z" fill="currentColor" stroke-width=".067293"/>
</svg>
