<svg width="48" height="48" viewBox="0 0 75.2 62.6" xmlns="http://www.w3.org/2000/svg">
<style>
#logo {
      fill: #575279;
      font-size: 16.4042px;
      fill-opacity: 1;
      stroke-width: 0.268;
      stroke-dasharray: none;
    }

    @media (prefers-color-scheme: dark) {
      #logo {
        fill: #e0def4; /* Dark mode fill color */
      }
    }
    </style>

<g id="logo" stroke-linecap="round" fill-rule="nonzero"><path d="M 35.3 0 L 23.1 30.6 L 36.5 62.6 L 26.6 62.6 L 18.2 38.8 L 9.8 62.6 L 0 62.6 L 13.2 30.6 L 0.9 0 L 10.9 0 L 18.2 22.5 L 25.4 0 L 35.3 0 Z M 62.9 27.2 L 62.9 10.2 A 9.303 9.303 0 0 0 62.874 9.473 Q 62.78 8.28 62.35 7.85 A 1.301 1.301 0 0 0 61.934 7.584 Q 61.266 7.3 59.9 7.3 L 43.3 7.3 L 43.3 0 L 62.6 0 A 16.956 16.956 0 0 1 65.147 0.178 Q 68.133 0.633 69.75 2.25 A 7.207 7.207 0 0 1 71.534 5.311 Q 71.882 6.454 71.97 7.834 A 15.138 15.138 0 0 1 72 8.8 L 72 28.4 Q 72 32.8 69.75 35.05 A 6.777 6.777 0 0 1 67.274 36.588 Q 65.356 37.3 62.6 37.3 L 46.5 37.3 L 46.5 30.1 L 59.9 30.1 A 9.448 9.448 0 0 0 60.667 30.072 Q 61.905 29.97 62.34 29.511 A 0.954 0.954 0 0 0 62.35 29.5 A 1.57 1.57 0 0 0 62.64 29.018 Q 62.829 28.547 62.881 27.801 A 8.713 8.713 0 0 0 62.9 27.2 Z M 42.1 62.6 L 42.1 0 L 51.1 0 L 51.1 62.6 L 42.1 62.6 Z M 65.4 62.6 L 54.7 33.7 L 63.9 33.7 L 75.2 62.6 L 65.4 62.6 Z" vector-effect="non-scaling-stroke"/></g></svg>